<svg xmlns="http://www.w3.org/2000/svg" viewBox="0 0 72 72">
  <path d="M18 37C12 27 10 9 18 6c8-3 14 14 14 31M43 36c1-17 8-31 16-29 8 3 4 21-6 33" fill="#FFF8DD" stroke="#143F32" stroke-width="4" stroke-linecap="round" stroke-linejoin="round"/>
  <path d="M19 12c4-1 8 13 9 24M57 13c3 2-1 15-9 24" fill="none" stroke="#F06F9B" stroke-width="5" stroke-linecap="round"/>
  <path d="M59 46c0 14-10 22-24 22S11 60 11 46c0-13 9-21 24-21s24 8 24 21Z" fill="#FFF8DD" stroke="#143F32" stroke-width="4" stroke-linejoin="round"/>
  <path d="M18 37c3-5 7-8 12-9M52 36c-3-5-7-7-12-8" fill="none" stroke="#FFF39B" stroke-width="3" stroke-linecap="round"/>
  <circle cx="25" cy="44" r="4" fill="#143F32"/>
  <circle cx="45" cy="44" r="4" fill="#143F32"/>
  <circle cx="26.5" cy="42.5" r="1.2" fill="#FFF8DD"/>
  <circle cx="46.5" cy="42.5" r="1.2" fill="#FFF8DD"/>
  <circle cx="19" cy="52" r="3.5" fill="#F7A3B9" opacity="0.85"/>
  <circle cx="51" cy="52" r="3.5" fill="#F7A3B9" opacity="0.85"/>
  <ellipse cx="35" cy="51" rx="3.2" ry="2.5" fill="#F06F9B" stroke="#143F32" stroke-width="2"/>
  <path d="M35 54v2c0 3-3 5-7 5m7-5c0 3 3 5 7 5" fill="none" stroke="#143F32" stroke-width="2.5" stroke-linecap="round"/>
  <path d="M31 57h4v7h-4c-2 0-3-2-3-4s1-3 3-3Zm4 0h4c2 0 3 1 3 3s-1 4-3 4h-4v-7Z" fill="#FFFFFF" stroke="#143F32" stroke-width="2" stroke-linejoin="round"/>
  <path d="M16 26l4 2m36-4-4 3" fill="none" stroke="#143F32" stroke-width="2.5" stroke-linecap="round"/>
</svg>
